<?xml version="1.0" standalone="no"?>
<!DOCTYPE svg PUBLIC "-//W3C//DTD SVG 20010904//EN"
 "http://www.w3.org/TR/2001/REC-SVG-20010904/DTD/svg10.dtd">
<svg version="1.0" xmlns="http://www.w3.org/2000/svg"
 width="835.000000pt" height="835.000000pt" viewBox="0 0 835.000000 835.000000"
 preserveAspectRatio="xMidYMid meet">

<g transform="translate(0.000000,835.000000) scale(0.100000,-0.100000)"
fill="#000000" stroke="none">
<path d="M3527 8344 c-5 -6 -88 -27 -159 -41 -16 -3 -28 -9 -28 -14 0 -5 -7
-9 -15 -9 -8 0 -23 -4 -33 -9 -9 -4 -44 -21 -77 -37 -33 -16 -62 -31 -65 -34
-3 -3 -24 -14 -47 -25 -24 -11 -43 -23 -43 -27 0 -5 -5 -8 -12 -8 -6 0 -26
-11 -44 -25 -18 -14 -36 -25 -41 -25 -4 0 -21 -11 -37 -25 -16 -14 -32 -25
-35 -25 -3 0 -18 -10 -33 -23 -15 -13 -39 -32 -53 -43 -15 -10 -40 -31 -55
-46 -16 -16 -31 -28 -35 -28 -3 0 -16 -11 -29 -23 -13 -13 -46 -41 -72 -63
-54 -43 -114 -104 -114 -115 0 -4 -6 -14 -13 -21 -26 -27 -51 -95 -55 -151 -5
-59 14 -173 29 -183 5 -3 9 -18 9 -34 0 -16 4 -31 9 -34 5 -3 11 -29 14 -58 4
-29 11 -75 16 -103 18 -90 12 -300 -10 -405 -11 -52 -23 -107 -26 -122 -3 -16
-9 -28 -14 -28 -5 0 -9 -6 -9 -13 0 -9 -11 -12 -35 -9 -19 2 -35 8 -35 13 0 5
-7 9 -15 9 -8 0 -23 4 -33 10 -9 5 -33 15 -52 23 -71 29 -118 51 -230 105 -63
31 -117 59 -120 62 -3 3 -24 14 -47 25 -24 11 -43 23 -43 28 0 4 -7 7 -15 7
-8 0 -15 4 -15 9 0 5 -11 12 -25 15 -14 4 -25 11 -25 16 0 6 -5 10 -11 10 -6
0 -23 9 -38 20 -42 29 -220 120 -237 120 -8 0 -14 4 -14 9 0 5 -12 11 -27 14
-16 3 -48 11 -73 17 -203 53 -260 57 -435 31 -87 -13 -205 -47 -221 -64 -4 -4
-15 -7 -25 -7 -9 0 -19 -3 -21 -7 -1 -5 -21 -17 -43 -27 -22 -11 -54 -30 -72
-43 -17 -13 -34 -23 -37 -23 -4 0 -20 -13 -38 -30 -17 -16 -35 -30 -40 -30
-11 0 -198 -187 -198 -198 0 -5 -9 -17 -19 -29 -43 -45 -110 -155 -117 -188
-3 -19 -10 -38 -15 -41 -5 -3 -9 -18 -9 -35 0 -16 -3 -29 -8 -29 -7 0 -33
-130 -47 -235 -14 -104 -16 -195 -6 -260 33 -201 46 -265 53 -265 5 0 8 -13 8
-30 0 -16 5 -30 10 -30 6 0 10 -9 10 -20 0 -11 12 -45 26 -77 42 -93 79 -168
84 -173 3 -3 14 -22 25 -43 11 -21 28 -47 38 -57 9 -11 17 -22 17 -25 0 -4 6
-13 13 -20 29 -33 37 -45 37 -54 0 -5 4 -11 8 -13 4 -1 21 -21 37 -43 84 -113
295 -320 430 -420 60 -45 64 -48 89 -72 l23 -21 13 41 c6 23 16 50 21 59 5 10
9 27 9 38 0 11 5 20 10 20 6 0 10 10 10 23 0 13 7 32 15 43 8 10 15 27 15 37
0 16 18 55 30 67 3 3 14 31 24 63 11 31 23 57 28 57 4 0 8 9 8 20 0 11 5 20
10 20 6 0 10 4 10 10 0 17 34 90 42 90 5 0 8 6 8 14 0 7 7 19 15 26 8 7 15 21
15 31 0 11 5 19 10 19 6 0 10 7 10 15 0 8 5 15 10 15 6 0 10 9 10 19 0 10 7
21 15 25 8 3 15 13 15 22 0 9 8 24 19 33 10 9 21 26 25 39 4 12 12 22 17 22 5
0 9 6 9 14 0 8 3 16 8 18 9 4 62 85 62 95 0 5 9 14 20 21 12 7 24 21 28 31 9
22 72 98 138 166 l50 52 110 7 c60 5 152 11 204 16 52 4 165 13 250 19 85 6
198 16 250 21 52 6 149 12 215 15 66 2 255 10 420 17 401 17 1763 17 2165 -1
168 -7 366 -15 440 -17 74 -3 154 -9 177 -14 23 -6 77 -10 120 -10 43 -1 123
-5 178 -11 121 -12 295 -26 429 -35 l100 -7 50 -52 c57 -58 113 -125 138 -166
9 -15 23 -31 30 -36 7 -4 22 -25 33 -46 11 -21 28 -47 38 -57 9 -11 17 -24 17
-30 0 -5 4 -10 9 -10 5 0 13 -10 17 -22 4 -13 15 -30 25 -39 11 -9 19 -24 19
-33 0 -9 7 -19 15 -22 8 -4 15 -15 15 -25 0 -10 5 -19 10 -19 6 0 10 -7 10
-15 0 -8 5 -15 10 -15 6 0 10 -8 10 -19 0 -10 7 -24 15 -31 8 -7 15 -19 15
-26 0 -8 3 -14 8 -14 8 0 42 -73 42 -90 0 -6 5 -10 10 -10 6 0 10 -9 10 -20 0
-11 4 -20 9 -20 5 0 17 -27 27 -60 11 -33 22 -60 27 -60 4 0 7 -7 7 -15 0 -15
3 -24 34 -82 9 -17 16 -41 16 -52 0 -12 5 -21 10 -21 6 0 10 -9 10 -20 0 -11
4 -28 9 -38 17 -35 29 -82 20 -82 -5 0 -9 -4 -9 -10 0 -17 20 -11 45 13 26 24
30 27 90 72 135 100 346 307 430 420 16 22 33 42 37 43 4 2 8 8 8 13 0 6 11
22 25 37 14 15 25 30 25 35 0 4 8 16 18 27 9 10 26 36 37 57 11 21 22 40 25
43 5 5 42 80 84 173 14 32 26 66 26 77 0 11 5 20 10 20 6 0 10 14 10 30 0 17
3 30 8 30 7 0 20 64 53 265 6 39 9 104 6 145 -5 66 -12 114 -43 308 -4 23 -11
42 -15 42 -5 0 -9 8 -9 18 -1 61 -71 199 -142 276 -10 11 -18 23 -18 28 0 11
-187 198 -198 198 -5 0 -23 13 -39 29 -17 16 -40 32 -52 36 -11 3 -21 10 -21
14 0 4 -26 21 -57 37 -32 16 -59 32 -61 37 -2 4 -12 7 -21 7 -10 0 -21 3 -25
7 -16 17 -134 51 -221 64 -175 26 -232 22 -435 -31 -25 -6 -57 -14 -72 -17
-16 -3 -28 -9 -28 -14 0 -5 -6 -9 -14 -9 -17 0 -195 -91 -237 -120 -15 -11
-32 -20 -38 -20 -6 0 -11 -4 -11 -10 0 -5 -11 -12 -25 -16 -14 -3 -25 -10 -25
-15 0 -5 -7 -9 -15 -9 -8 0 -15 -3 -15 -7 0 -5 -19 -17 -43 -28 -23 -11 -44
-22 -47 -25 -3 -3 -57 -31 -120 -62 -112 -54 -159 -76 -230 -105 -19 -8 -43
-18 -52 -23 -10 -6 -25 -10 -33 -10 -8 0 -15 -4 -15 -10 0 -5 -9 -10 -20 -10
-11 0 -29 -5 -39 -12 -28 -17 -45 -5 -62 48 -45 134 -65 277 -55 401 13 175
17 218 25 238 26 65 55 202 58 274 4 79 0 104 -28 151 -5 8 -12 22 -16 30 -13
28 -83 104 -134 144 -28 22 -139 116 -155 131 -6 6 -27 21 -47 35 -20 14 -37
28 -37 33 0 4 -5 7 -10 7 -6 0 -23 11 -38 25 -15 14 -32 25 -39 25 -7 0 -13 4
-13 8 0 5 -16 17 -35 28 -19 10 -35 21 -35 24 0 4 -16 12 -35 20 -19 8 -35 17
-35 20 0 3 -19 14 -42 25 -24 10 -45 21 -48 25 -3 3 -30 16 -60 29 -30 13 -68
29 -85 36 -53 22 -136 45 -166 45 -15 0 -31 5 -34 10 -11 18 -224 12 -285 -9
-71 -24 -145 -57 -162 -73 -46 -45 -70 -52 -184 -51 -105 1 -114 3 -155 30
-24 15 -46 30 -49 33 -11 13 -106 52 -137 57 -18 3 -33 10 -33 14 0 10 -243
12 -253 3z"/>
<path d="M3113 5416 c-29 -16 -103 -98 -103 -113 0 -7 -4 -13 -10 -13 -5 0
-10 -8 -10 -17 0 -10 -7 -27 -15 -37 -8 -11 -15 -28 -15 -38 0 -10 -4 -18 -9
-18 -5 0 -11 -12 -14 -27 -3 -16 -12 -55 -21 -88 -46 -168 -61 -306 -61 -560
0 -229 9 -392 24 -430 5 -11 14 -48 20 -83 13 -69 38 -158 52 -184 5 -10 9
-24 9 -31 0 -22 81 -150 114 -179 16 -14 47 -32 68 -39 33 -10 43 -10 78 6 44
20 100 71 100 91 0 7 3 14 8 16 4 2 20 30 35 63 16 33 33 68 38 77 5 10 9 25
9 33 0 8 4 23 10 33 33 61 79 414 79 617 0 120 -19 337 -38 430 -5 28 -15 77
-21 110 -6 33 -15 64 -21 70 -5 5 -9 22 -9 37 0 15 -4 28 -10 28 -5 0 -10 6
-10 13 0 7 -11 37 -25 65 -14 29 -25 54 -25 57 0 6 -38 51 -65 77 -47 45 -115
60 -162 34z"/>
<path d="M5126 5417 c-52 -31 -116 -96 -116 -116 0 -4 -11 -29 -25 -55 -14
-26 -25 -54 -25 -62 0 -7 -4 -14 -9 -14 -5 0 -11 -15 -14 -32 -5 -34 -21 -98
-38 -154 -5 -17 -9 -49 -9 -72 0 -23 -4 -42 -8 -42 -11 0 -32 -271 -31 -395 1
-193 56 -595 81 -595 4 0 8 -11 8 -25 0 -14 4 -33 9 -43 5 -9 22 -44 38 -77
15 -33 31 -61 36 -63 4 -2 7 -9 7 -16 0 -20 56 -71 100 -91 75 -34 145 8 218
129 23 39 42 76 42 83 0 7 4 21 9 31 14 26 39 115 52 184 6 35 15 72 20 83 12
30 18 117 25 375 6 262 -10 422 -62 615 -9 33 -18 72 -21 88 -3 15 -9 27 -14
27 -5 0 -9 8 -9 18 0 10 -7 27 -15 38 -8 10 -15 27 -15 37 0 9 -4 17 -10 17
-5 0 -10 6 -10 13 0 18 -72 96 -105 113 -33 17 -83 17 -109 1z"/>
<path d="M7430 4439 c0 -5 5 -7 10 -4 6 3 10 8 10 11 0 2 -4 4 -10 4 -5 0 -10
-5 -10 -11z"/>
<path d="M7445 4410 c-3 -5 -1 -10 4 -10 6 0 11 5 11 10 0 6 -2 10 -4 10 -3 0
-8 -4 -11 -10z"/>
<path d="M871 4364 c0 -11 3 -14 6 -6 3 7 2 16 -1 19 -3 4 -6 -2 -5 -13z"/>
<path d="M7458 4373 c7 -3 16 -2 19 1 4 3 -2 6 -13 5 -11 0 -14 -3 -6 -6z"/>
<path d="M7460 4340 c0 -5 5 -10 11 -10 6 0 9 -7 5 -15 -3 -9 0 -15 9 -15 12
0 12 5 3 25 -11 25 -28 34 -28 15z"/>
<path d="M861 4315 c0 -12 -6 -26 -12 -32 -13 -13 -4 -33 14 -33 7 0 6 4 -3
10 -12 8 -13 12 -2 19 8 4 12 19 9 32 -4 20 -4 21 -6 4z"/>
<path d="M7480 4270 c0 -5 7 -10 15 -10 8 0 15 5 15 10 0 6 -7 10 -15 10 -8 0
-15 -4 -15 -10z"/>
<path d="M7480 4242 c0 -4 4 -12 9 -17 5 -6 12 -31 14 -56 3 -25 10 -57 17
-70 10 -17 10 -24 1 -27 -15 -5 -4 -22 15 -22 16 0 20 45 4 55 -5 3 -10 19
-10 35 0 16 -5 32 -10 35 -6 4 -8 10 -5 15 7 12 -12 60 -25 60 -5 0 -10 -4
-10 -8z"/>
<path d="M842 4210 c0 -19 2 -27 5 -17 2 9 2 25 0 35 -3 9 -5 1 -5 -18z"/>
<path d="M822 4138 c-1 -20 -6 -40 -12 -43 -13 -8 -13 -55 0 -55 12 0 23 58
17 101 l-4 34 -1 -37z"/>
<path d="M7525 4030 c-3 -5 1 -10 9 -10 22 0 20 -20 -1 -20 -17 -1 -17 -1 0
-14 14 -11 15 -15 5 -19 -10 -4 -10 -8 2 -16 13 -10 13 -12 0 -21 -10 -6 -11
-10 -2 -10 6 0 12 -6 12 -14 0 -8 -6 -17 -12 -19 -10 -4 -10 -6 0 -6 6 -1 12
-10 12 -21 0 -11 -6 -20 -12 -20 -10 0 -10 -2 0 -8 7 -5 10 -15 7 -24 -3 -8 1
-21 10 -28 13 -11 13 -15 3 -22 -10 -6 -10 -10 2 -18 12 -8 13 -11 1 -19 -10
-6 -10 -10 -1 -16 9 -6 9 -10 -1 -16 -12 -8 -11 -11 1 -19 12 -8 13 -11 1 -19
-10 -6 -10 -10 -1 -16 9 -6 9 -10 -1 -17 -11 -8 -11 -11 -1 -15 9 -4 10 -8 2
-18 -8 -10 -8 -15 0 -20 7 -4 3 -14 -12 -27 l-23 -20 25 7 c21 7 23 6 13 -7
-10 -11 -10 -17 -1 -26 9 -9 9 -12 0 -12 -16 0 -15 -42 1 -59 10 -11 7 -12
-13 -6 l-25 7 23 -20 c14 -12 19 -23 12 -27 -5 -3 -10 -1 -10 4 0 6 -4 11 -10
11 -5 0 -10 -11 -10 -25 0 -26 15 -34 23 -12 2 6 8 9 12 5 5 -5 -2 -17 -15
-28 -13 -11 -18 -20 -12 -20 16 0 15 -37 0 -43 -10 -4 -10 -6 0 -6 18 -1 14
-29 -5 -34 -17 -4 -17 -5 0 -6 9 0 17 -5 17 -10 0 -5 -8 -12 -17 -14 -17 -4
-17 -5 0 -6 20 -1 24 -31 4 -31 -10 0 -14 -17 -14 -61 -1 -33 -6 -66 -12 -72
-6 -6 -11 -23 -11 -38 0 -15 -4 -30 -9 -33 -7 -5 -13 -35 -23 -123 -1 -7 -5
-13 -10 -13 -4 0 -8 -15 -8 -34 0 -19 -6 -37 -12 -39 -10 -4 -9 -8 2 -17 11
-9 12 -13 3 -17 -7 -2 -13 -11 -13 -18 0 -7 -6 -16 -12 -19 -10 -5 -10 -7 0
-12 17 -8 15 -24 -3 -24 -10 0 -15 -10 -15 -29 0 -17 -5 -33 -10 -36 -8 -5 -8
-11 -1 -19 7 -9 5 -16 -9 -26 -15 -11 -16 -16 -7 -23 9 -7 9 -10 0 -14 -7 -2
-13 -13 -13 -24 0 -10 -4 -19 -9 -19 -5 0 -12 -13 -16 -30 -4 -16 -11 -32 -16
-35 -5 -4 -9 -17 -9 -31 0 -13 -4 -24 -10 -24 -5 0 -10 -9 -10 -20 0 -11 -4
-20 -10 -20 -5 0 -10 -16 -10 -35 0 -27 -4 -35 -17 -35 -15 0 -16 -2 -3 -10
10 -7 12 -12 4 -17 -6 -5 -17 -23 -25 -40 -8 -18 -17 -33 -20 -33 -4 0 -10
-15 -13 -33 -3 -18 -15 -39 -26 -47 -11 -8 -20 -20 -20 -27 0 -7 -4 -13 -10
-13 -5 0 -12 -11 -16 -25 -3 -14 -10 -25 -15 -25 -5 0 -9 -9 -9 -20 0 -11 -4
-20 -10 -20 -5 0 -10 -7 -10 -15 0 -8 -7 -15 -15 -15 -18 0 -20 -16 -2 -23 7
-3 2 -9 -13 -15 -14 -6 -19 -11 -12 -11 20 -1 13 -21 -8 -21 -13 0 -20 -7 -20
-20 0 -12 -7 -20 -16 -20 -14 0 -14 -3 -4 -15 10 -13 9 -15 -9 -15 -22 0 -29
-16 -10 -22 6 -2 -10 -25 -36 -51 -25 -26 -42 -47 -36 -47 6 0 11 -5 11 -11 0
-6 -9 -8 -20 -4 -16 5 -20 2 -20 -19 0 -16 -6 -26 -15 -26 -8 0 -15 -7 -15
-15 0 -9 -10 -15 -22 -16 -13 0 -17 -3 -10 -6 17 -7 15 -33 -3 -33 -8 0 -15
-7 -15 -15 0 -8 -9 -15 -20 -15 -13 0 -20 -7 -20 -20 0 -11 -7 -20 -15 -20 -9
0 -12 -6 -9 -15 4 -8 1 -15 -5 -15 -14 0 -91 -76 -91 -90 0 -6 -6 -13 -14 -16
-8 -3 -12 -12 -9 -20 3 -8 0 -14 -6 -14 -16 0 -61 -42 -61 -57 0 -7 -7 -13
-15 -13 -8 0 -15 -7 -15 -16 0 -11 -6 -14 -22 -10 -13 3 -17 3 -10 0 15 -7 16
-24 1 -24 -14 0 -39 -25 -39 -39 0 -6 -7 -11 -14 -11 -8 0 -21 -12 -28 -27 -8
-17 -26 -31 -45 -37 -22 -6 -33 -15 -33 -27 0 -12 -7 -19 -20 -19 -11 0 -20
-7 -20 -15 0 -8 -6 -15 -13 -15 -7 0 -19 -9 -27 -20 -8 -11 -20 -20 -27 -20
-7 0 -10 -7 -6 -17 5 -12 2 -15 -10 -10 -11 4 -17 1 -17 -8 0 -8 -4 -15 -10
-15 -5 0 -10 5 -10 10 0 6 -4 10 -10 10 -5 0 -10 -9 -10 -20 0 -11 -7 -20 -15
-20 -8 0 -15 -7 -15 -16 0 -11 -6 -14 -20 -9 -15 5 -22 0 -30 -19 -6 -18 -17
-26 -33 -26 -24 0 -57 -31 -57 -55 0 -8 -4 -15 -10 -15 -5 0 -10 5 -10 10 0 6
-4 10 -10 10 -5 0 -10 -7 -10 -15 0 -8 -5 -15 -11 -15 -7 0 -20 -10 -31 -22
-15 -17 -21 -19 -27 -9 -6 9 -10 6 -15 -11 -4 -14 -9 -18 -13 -10 -6 16 -23
15 -23 -2 0 -7 -7 -19 -16 -27 -13 -10 -17 -10 -25 2 -7 11 -9 9 -9 -8 0 -24
-19 -33 -21 -10 0 6 -4 2 -9 -10 -6 -16 -18 -23 -35 -23 -14 0 -28 -7 -31 -15
-4 -8 -14 -15 -23 -15 -9 0 -23 -9 -31 -20 -10 -14 -17 -17 -27 -8 -10 8 -13
6 -13 -6 0 -13 -5 -16 -20 -11 -14 5 -20 2 -20 -9 0 -19 -16 -21 -23 -3 -3 6
-6 2 -6 -10 -1 -25 -16 -31 -24 -10 -3 8 -11 4 -22 -11 -13 -18 -20 -21 -31
-11 -11 9 -14 8 -14 -6 0 -11 -5 -15 -15 -11 -9 3 -15 0 -15 -9 0 -18 -16 -20
-24 -2 -5 10 -7 10 -12 0 -3 -7 -12 -13 -19 -13 -7 0 -15 -5 -17 -11 -2 -6
-17 -13 -32 -14 -16 -2 -32 -9 -36 -15 -4 -6 -14 -8 -23 -4 -12 4 -17 1 -17
-10 0 -19 -16 -21 -23 -3 -4 9 -6 9 -6 0 -1 -9 -18 -13 -48 -14 -27 0 -42 -3
-35 -6 27 -11 9 -19 -39 -17 -41 1 -55 -3 -74 -22 -30 -30 -38 -30 -31 -1 3
12 3 16 0 10 -3 -7 -12 -13 -20 -13 -8 0 -14 -4 -14 -10 0 -15 -40 -12 -41 3
0 6 -5 1 -10 -12 -7 -18 -12 -21 -23 -12 -11 9 -15 9 -20 -1 -5 -11 -7 -11
-12 0 -5 10 -9 10 -20 1 -7 -6 -40 -13 -71 -16 -32 -3 -61 -10 -65 -16 -4 -7
-11 -7 -22 2 -14 12 -16 10 -16 -8 0 -28 -20 -27 -21 2 0 12 -3 16 -6 10 -2
-7 -20 -13 -38 -13 -18 0 -36 -6 -38 -12 -4 -10 -8 -9 -16 2 -10 13 -12 13
-21 0 -8 -12 -11 -13 -19 -1 -7 11 -9 11 -14 0 -4 -12 -7 -11 -16 1 -10 13
-12 13 -21 0 -9 -13 -11 -13 -20 0 -6 10 -10 11 -10 3 0 -10 -26 -13 -94 -13
-59 0 -97 -4 -102 -11 -4 -8 -9 -7 -15 2 -7 11 -12 12 -28 2 -13 -8 -22 -9
-26 -3 -9 14 -105 13 -105 -2 0 -6 -11 -1 -24 11 -18 17 -25 19 -29 9 -5 -11
-7 -11 -15 1 -7 9 -11 10 -17 2 -5 -9 -10 -9 -20 -1 -10 8 -15 7 -19 -2 -5
-10 -7 -10 -12 0 -7 14 -54 16 -54 2 0 -21 -20 -9 -21 13 0 12 -3 16 -6 10 -6
-16 -43 -17 -43 -2 0 8 -5 7 -16 -2 -12 -10 -17 -10 -23 -1 -4 7 -34 15 -66
18 -33 3 -65 10 -71 15 -8 7 -14 6 -18 -3 -5 -10 -7 -10 -12 0 -7 16 -31 16
-37 0 -3 -9 -11 -6 -24 9 -11 13 -30 23 -42 23 -11 0 -21 5 -21 11 0 8 -5 7
-16 -2 -13 -10 -17 -10 -23 0 -5 7 -33 15 -62 18 -30 3 -56 9 -57 14 -2 5 -15
9 -28 9 -13 0 -24 5 -24 10 0 6 -15 10 -34 10 -19 0 -37 6 -39 13 -4 10 -6 10
-6 0 -1 -7 -8 -13 -16 -13 -8 0 -15 6 -15 13 0 6 -12 13 -27 14 -15 0 -35 11
-44 22 -19 24 -35 27 -42 9 -3 -9 -14 -4 -34 14 -22 22 -32 25 -41 16 -9 -9
-12 -7 -12 10 0 12 -4 22 -10 22 -5 0 -10 -4 -10 -10 0 -5 -4 -10 -10 -10 -5
0 -10 10 -10 23 0 18 -2 19 -10 7 -7 -11 -12 -12 -17 -4 -5 7 -27 20 -50 30
-24 10 -43 22 -43 26 0 5 -9 8 -20 8 -11 0 -20 5 -20 10 0 6 -6 10 -14 10 -7
0 -19 7 -26 15 -9 11 -17 12 -23 6 -7 -7 -20 1 -39 21 -20 21 -39 31 -59 31
-30 0 -39 11 -16 20 6 3 0 6 -15 6 -16 1 -28 6 -28 11 0 6 -9 10 -20 10 -11 0
-20 4 -20 9 0 5 -11 12 -25 15 -14 4 -25 11 -25 16 0 6 -7 10 -15 10 -8 0 -15
7 -15 16 0 11 -5 14 -16 10 -16 -6 -44 15 -44 33 0 6 -5 11 -11 11 -7 0 -19 8
-28 19 -9 10 -26 21 -38 25 -15 5 -23 15 -23 29 0 17 -2 19 -9 8 -8 -12 -14
-10 -35 10 -14 13 -26 31 -26 39 0 13 -2 13 -9 1 -8 -12 -12 -12 -25 -2 -9 8
-16 19 -16 26 0 7 -9 15 -20 18 -11 3 -20 12 -20 21 0 9 -5 16 -11 16 -14 0
-39 26 -39 41 0 9 -4 8 -15 -1 -13 -10 -15 -9 -15 9 0 14 -6 21 -20 21 -11 0
-20 7 -20 16 0 8 -4 13 -9 10 -14 -9 -41 4 -41 19 0 7 6 16 13 18 6 3 -3 6
-20 6 -33 1 -44 15 -20 24 7 3 5 6 -5 6 -11 1 -18 9 -18 21 0 13 -7 20 -20 20
-11 0 -20 7 -20 15 0 9 -6 12 -17 8 -12 -5 -15 -2 -10 11 4 10 -1 23 -14 34
-11 9 -27 31 -35 49 -10 20 -21 30 -30 26 -8 -3 -14 1 -14 11 0 9 -4 16 -10
16 -5 0 -10 10 -11 23 0 12 -3 16 -6 10 -8 -22 -23 -14 -23 12 0 18 -5 25 -20
25 -13 0 -20 7 -20 19 0 10 -11 27 -25 37 -14 10 -25 27 -25 36 0 10 -7 18
-15 18 -8 0 -15 6 -15 13 0 7 -9 19 -20 27 -11 8 -20 19 -20 25 0 6 -11 22
-25 37 -14 15 -25 30 -25 33 0 3 -9 16 -21 28 -11 12 -23 34 -26 50 -4 18 -12
27 -24 27 -11 0 -19 5 -19 10 0 6 5 10 12 10 6 0 0 13 -15 28 -15 15 -27 33
-27 40 0 7 -4 12 -10 12 -5 0 -10 9 -10 20 0 11 -4 20 -9 20 -5 0 -13 15 -16
33 -4 17 -20 43 -36 55 -15 13 -31 37 -34 53 -4 16 -11 29 -16 29 -5 0 -9 11
-9 23 0 13 -9 32 -19 41 -11 10 -23 35 -26 57 -4 21 -11 39 -16 39 -5 0 -9 11
-9 25 0 14 -4 25 -10 25 -5 0 -10 11 -10 24 0 13 -7 29 -15 36 -9 7 -13 21
-10 31 4 13 1 19 -9 19 -19 0 -21 16 -3 23 9 4 9 6 0 6 -7 1 -13 10 -13 21 0
11 -3 20 -7 20 -5 0 -13 11 -20 25 -8 18 -8 25 0 25 7 0 7 4 -1 12 -7 7 -12
22 -12 35 0 13 -7 26 -15 29 -18 7 -20 30 -2 37 10 4 10 6 0 6 -7 1 -13 12
-13 26 0 14 -4 25 -10 25 -5 0 -10 15 -10 33 0 18 -5 38 -11 44 -6 6 -13 38
-16 72 -3 33 -10 61 -14 61 -5 0 -9 11 -9 24 0 13 -6 27 -12 30 -10 5 -10 7 0
12 16 7 16 35 0 29 -10 -4 -14 16 -16 77 -1 45 -5 84 -10 87 -4 3 -9 28 -10
56 -2 27 -8 52 -14 56 -7 4 -6 9 2 14 9 6 9 10 -1 16 -12 8 -12 10 0 18 9 6
10 11 2 15 -16 10 -15 358 1 374 9 9 9 12 0 12 -7 0 -12 11 -12 25 0 14 5 25
10 25 14 0 13 43 -2 58 -9 9 -9 12 0 12 8 0 12 19 12 55 0 37 4 55 13 55 8 0
7 4 -3 10 -13 9 -13 11 0 20 13 9 13 11 0 20 -13 8 -15 -2 -18 -65 -2 -41 -7
-75 -12 -75 -6 0 -10 -31 -10 -70 0 -40 -4 -70 -10 -70 -13 0 -13 -567 0 -641
5 -30 16 -112 25 -184 9 -71 20 -139 25 -150 5 -11 11 -36 14 -55 10 -74 25
-139 35 -159 6 -11 11 -33 11 -50 0 -17 5 -31 10 -31 6 0 10 -15 10 -34 0 -19
3 -36 8 -38 9 -4 42 -100 42 -122 0 -9 5 -16 10 -16 6 0 10 -10 10 -23 0 -13
4 -27 8 -32 5 -6 17 -32 27 -60 10 -27 29 -73 42 -102 12 -28 23 -57 23 -62 0
-6 5 -11 10 -11 6 0 10 -9 10 -20 0 -11 4 -20 8 -20 4 0 16 -22 27 -50 11 -28
23 -50 27 -50 4 0 8 -9 8 -20 0 -11 5 -20 10 -20 6 0 10 -5 10 -11 0 -6 7 -17
15 -25 8 -9 15 -24 15 -35 0 -10 5 -19 10 -19 6 0 10 -7 10 -15 0 -8 3 -15 8
-15 4 0 16 -17 27 -37 11 -21 26 -44 33 -52 8 -8 18 -24 23 -35 12 -29 30 -55
57 -85 12 -14 22 -30 22 -36 0 -6 9 -17 20 -25 11 -8 20 -18 20 -23 0 -5 6
-14 12 -22 7 -7 22 -25 33 -41 11 -15 38 -47 60 -72 22 -25 46 -54 54 -65 20
-28 300 -305 347 -344 22 -17 49 -39 61 -50 40 -34 58 -48 98 -78 22 -16 42
-33 45 -36 3 -3 20 -14 37 -24 18 -11 33 -23 33 -27 0 -4 4 -8 10 -8 5 0 32
-16 59 -35 26 -19 53 -35 60 -35 6 0 11 -4 11 -10 0 -5 11 -12 25 -16 14 -3
25 -10 25 -15 0 -5 7 -9 15 -9 8 0 15 -3 15 -7 0 -5 19 -17 43 -28 23 -11 44
-22 47 -25 9 -10 258 -130 269 -130 6 0 11 -4 11 -10 0 -5 9 -10 19 -10 11 0
22 -4 25 -9 3 -4 19 -11 36 -14 16 -4 49 -16 72 -27 23 -11 50 -20 60 -20 10
0 18 -3 18 -8 0 -7 58 -25 123 -39 15 -3 27 -9 27 -14 0 -5 12 -9 27 -9 15 0
45 -6 68 -14 57 -19 131 -36 160 -36 14 0 25 -4 25 -8 0 -4 55 -16 123 -25 67
-10 151 -22 187 -27 146 -21 204 -25 405 -24 203 0 268 4 405 24 36 5 120 17
188 27 67 9 122 21 122 25 0 4 11 8 25 8 29 0 103 17 160 36 23 8 53 14 68 14
15 0 27 4 27 9 0 5 12 11 28 14 64 14 122 32 122 39 0 5 8 8 18 8 10 0 38 9
61 21 24 11 59 23 77 26 19 3 34 10 34 14 0 5 9 9 20 9 11 0 20 5 20 10 0 6 5
10 11 10 11 0 260 120 269 130 3 3 24 14 47 25 24 11 43 23 43 28 0 4 7 7 15
7 8 0 15 4 15 9 0 5 11 12 25 15 14 4 25 11 25 16 0 6 5 10 11 10 7 0 34 16
60 35 27 19 54 35 59 35 6 0 10 4 10 8 0 4 15 16 33 27 17 10 34 21 37 24 3 3
23 20 45 36 40 30 68 51 89 70 6 6 36 30 66 55 59 49 329 316 351 348 8 10 32
39 54 64 22 25 49 57 60 72 11 16 26 34 33 41 6 8 12 17 12 22 0 5 9 15 20 23
11 8 20 19 20 25 0 6 10 22 23 36 26 30 44 56 56 85 5 11 15 27 23 35 7 8 22
31 33 52 11 20 23 37 27 37 5 0 8 7 8 15 0 8 5 15 10 15 6 0 10 8 10 19 0 10
7 24 15 31 8 7 15 19 15 26 0 8 5 14 10 14 6 0 10 9 10 20 0 11 4 20 8 20 4 0
16 22 27 50 11 27 23 50 27 50 4 0 8 9 8 20 0 11 5 20 10 20 6 0 10 5 10 11 0
5 11 34 23 62 13 29 32 75 42 102 10 28 22 54 27 59 4 6 8 20 8 33 0 13 5 23
10 23 6 0 10 7 10 16 0 22 33 118 43 122 4 2 7 19 7 38 0 19 5 34 10 34 6 0
10 14 10 31 0 17 5 39 11 50 10 20 25 85 35 159 3 19 9 44 14 55 8 20 29 158
51 335 13 111 7 643 -9 730 -6 30 -13 71 -17 90 -3 19 -6 54 -7 78 0 28 -4 42
-13 42 -8 0 -17 -4 -20 -10z m45 -230 c0 -5 -4 -10 -10 -10 -5 0 -10 5 -10 10
0 6 5 10 10 10 6 0 10 -4 10 -10z m-20 -660 c0 -5 -4 -10 -10 -10 -5 0 -10 5
-10 10 0 6 5 10 10 10 6 0 10 -4 10 -10z m-1460 -2350 c0 -5 -4 -10 -10 -10
-5 0 -10 5 -10 10 0 6 5 10 10 10 6 0 10 -4 10 -10z m-70 -50 c0 -5 -4 -10
-10 -10 -5 0 -10 5 -10 10 0 6 5 10 10 10 6 0 10 -4 10 -10z"/>
<path d="M1920 2913 c-32 -11 -80 -77 -82 -113 -5 -81 10 -197 32 -255 4 -11
12 -36 17 -55 32 -112 49 -160 55 -160 5 0 8 -9 8 -20 0 -11 11 -43 25 -72 14
-28 25 -58 25 -65 0 -7 5 -13 10 -13 6 0 10 -6 10 -12 0 -13 50 -119 60 -128
4 -3 12 -20 20 -38 7 -19 18 -39 24 -46 13 -14 27 -36 62 -98 15 -27 31 -48
36 -48 4 0 8 -6 8 -13 0 -7 11 -24 25 -39 14 -15 25 -30 25 -32 0 -6 32 -45
58 -72 6 -7 12 -15 12 -19 0 -5 105 -118 181 -194 32 -32 106 -98 159 -141 30
-25 57 -48 58 -52 2 -5 10 -8 18 -8 8 0 14 -4 14 -10 0 -5 4 -10 10 -10 5 0
37 -20 72 -44 99 -69 231 -138 398 -208 14 -6 32 -14 40 -18 8 -4 42 -15 75
-25 33 -10 64 -22 70 -27 5 -4 22 -8 37 -8 16 0 36 -4 46 -9 25 -14 146 -41
182 -41 16 0 30 -4 30 -9 0 -5 26 -11 58 -14 31 -2 91 -10 132 -17 98 -15 394
-15 490 0 41 7 101 15 133 17 31 3 57 9 57 14 0 5 14 9 30 9 36 0 157 27 182
41 10 5 30 9 46 9 15 0 32 4 38 8 5 5 29 14 54 21 42 12 61 19 144 56 19 8 37
15 41 15 12 0 229 112 282 146 29 19 56 34 59 34 3 0 17 11 32 25 15 14 32 25
39 25 7 0 13 5 13 10 0 6 5 10 10 10 6 0 16 5 23 10 7 6 23 20 37 31 143 117
322 296 385 383 11 16 26 34 33 41 6 8 12 16 12 20 0 3 11 18 25 33 14 15 25
32 25 39 0 6 4 13 8 15 11 4 82 115 82 128 0 6 3 10 8 10 9 0 42 58 42 75 0 7
3 15 8 17 16 7 132 260 132 288 0 11 5 20 10 20 6 0 10 8 10 18 0 10 4 22 8
28 5 5 17 41 26 79 10 39 21 79 26 90 19 48 33 134 33 206 1 73 -2 82 -30 116
-42 53 -83 62 -181 39 -42 -10 -86 -22 -97 -26 -11 -5 -31 -11 -45 -13 -14 -3
-56 -13 -95 -22 -38 -10 -87 -20 -108 -22 -20 -3 -40 -9 -43 -14 -3 -5 -19 -9
-36 -9 -18 0 -45 -4 -62 -9 -48 -15 -203 -48 -286 -61 -30 -5 -95 -16 -145
-25 -87 -16 -135 -23 -295 -44 -210 -27 -348 -43 -470 -53 -172 -14 -715 -14
-885 0 -212 18 -349 32 -369 38 -10 4 -55 10 -100 15 -131 15 -205 26 -301 44
-49 9 -115 20 -145 25 -30 5 -68 11 -85 15 -99 21 -174 38 -201 46 -17 5 -44
9 -62 9 -17 0 -33 4 -36 9 -3 5 -23 11 -43 14 -21 2 -69 12 -108 22 -38 9 -81
19 -95 22 -14 2 -34 8 -45 12 -73 29 -189 47 -225 34z m128 -192 c9 -5 53 -17
97 -26 44 -10 89 -21 100 -26 11 -4 34 -10 50 -14 17 -3 59 -13 95 -21 36 -8
88 -19 115 -24 28 -6 70 -14 95 -20 25 -5 83 -17 130 -26 83 -15 120 -22 265
-44 39 -6 78 -13 87 -16 20 -6 126 -21 243 -34 299 -33 398 -42 540 -47 88 -2
164 -9 169 -14 6 -5 15 -4 23 2 9 8 13 8 13 0 0 -15 186 -15 196 0 4 8 9 7 15
-2 6 -10 13 -11 31 -2 13 7 93 14 178 17 211 7 628 51 800 84 30 5 89 15 130
22 76 11 94 15 280 51 58 12 125 25 150 30 25 5 74 15 110 23 36 8 79 18 95
21 17 4 39 10 50 14 11 5 56 16 100 26 44 9 88 21 97 26 10 5 27 9 37 9 18 0
20 -5 15 -52 -3 -29 -9 -62 -14 -73 -4 -11 -16 -54 -25 -95 -10 -41 -22 -82
-25 -90 -4 -8 -13 -33 -19 -55 -7 -22 -18 -53 -26 -70 -7 -16 -18 -41 -23 -55
-46 -109 -69 -150 -84 -150 -9 0 -19 -4 -22 -9 -3 -5 -23 -11 -43 -14 -56 -7
-235 -48 -255 -58 -10 -5 -36 -9 -57 -9 -22 0 -42 -4 -45 -9 -3 -4 -25 -11
-48 -14 -24 -3 -79 -13 -123 -22 -44 -9 -107 -21 -140 -25 -33 -5 -105 -16
-160 -26 -55 -9 -130 -18 -167 -21 -38 -3 -68 -9 -68 -13 0 -5 -39 -11 -87
-13 -49 -3 -167 -12 -263 -22 -346 -34 -676 -31 -1045 7 -55 6 -139 13 -187
15 -49 3 -88 8 -88 13 0 4 -30 10 -67 13 -38 3 -113 12 -168 21 -55 10 -127
21 -160 26 -33 5 -80 13 -105 19 -25 5 -76 15 -115 21 -38 7 -79 16 -90 20
-11 5 -38 11 -60 13 -22 3 -89 17 -150 32 -60 15 -127 30 -148 32 -20 3 -40 9
-43 14 -3 5 -13 9 -23 9 -16 0 -33 31 -83 150 -22 51 -41 95 -49 112 -5 10 -9
28 -9 41 0 13 -3 27 -6 30 -13 13 -43 112 -44 143 0 16 -4 34 -9 40 -5 5 -11
35 -14 67 -5 52 -4 57 14 57 11 0 27 -4 37 -9z"/>
</g>
</svg>
